<?xml version="1.0" encoding="UTF-8" standalone="no"?>
<svg width="1657px" height="133px" viewBox="0 0 1657 133" version="1.1" xmlns="http://www.w3.org/2000/svg" xmlns:xlink="http://www.w3.org/1999/xlink">
    <defs>
        <polygon id="path-1" points="0 127.019979 462.62662 127.019979 462.62662 0.00110376812 0 0.00110376812"></polygon>
        <polygon id="path-3" points="0 117.051967 348.157793 117.051967 348.157793 0.585675 0 0.585675"></polygon>
        <polygon id="path-5" points="74.4231109 111.312871 74.4231109 0.268412804 0.23800546 0.268412804 0.23800546 111.312871 74.4231109 111.312871"></polygon>
        <polygon id="path-7" points="0.0648020825 0.147809626 62.859276 0.147809626 62.859276 90.4415837 0.0648020825 90.4415837 0.0648020825 0.147809626"></polygon>
        <polygon id="path-9" points="0 132.653739 447.189759 132.653739 447.189759 1.02358166 0 1.02358166"></polygon>
    </defs>
    <g id="Page-1" stroke="none" stroke-width="1" fill="none" fill-rule="evenodd">
        <g id="Nulab-logos" transform="translate(-366.000000, -2038.000000)">
            <g id="Group-8" transform="translate(366.000000, 2037.000000)">
                <g id="Group-3" transform="translate(0.000000, 128.000000)" stroke="#979797" stroke-linecap="square">
                    <path d="M0.56067316,0.5 L1655.67392,0.5" id="Line"></path>
                </g>
                <g id="Page-1" transform="translate(0.000000, 6.000000)">
                    <path d="M401.918181,121.873108 L398.212943,121.873108 L398.212943,113.495508 C398.212943,110.978917 396.182451,108.931427 393.686751,108.931427 C391.191052,108.931427 389.160559,110.978917 389.160559,113.495508 L389.160559,121.873108 L385.455321,121.873108 L385.455321,113.495508 C385.455321,108.91763 389.146877,105.195172 393.686751,105.195172 C398.226626,105.195172 401.918181,108.91763 401.918181,113.495508 L401.918181,121.873108 Z" id="Fill-1" fill="#FF6455"></path>
                    <path d="M411.690542,122.433823 C407.150667,122.433823 403.459112,118.711365 403.459112,114.133486 L403.459112,105.755886 L407.16435,105.755886 L407.16435,114.133486 C407.16435,116.650078 409.194842,118.697568 411.690542,118.697568 C414.186241,118.697568 416.216734,116.650078 416.216734,114.133486 L416.216734,105.755886 L419.921972,105.755886 L419.921972,114.133486 C419.921972,118.711365 416.230416,122.433823 411.690542,122.433823" id="Fill-3" fill="#FF6455"></path>
                    <path d="M435.31595,108.970611 C432.820251,108.970611 430.789758,111.018101 430.789758,113.534692 C430.789758,116.048524 432.820251,118.096014 435.31595,118.096014 L439.918764,118.096014 L439.918764,108.970611 L435.31595,108.970611 Z M443.624003,121.835028 L435.31595,121.835028 C430.776076,121.835028 427.08452,118.109811 427.08452,113.534692 C427.08452,108.956814 430.776076,105.234356 435.31595,105.234356 L443.624003,105.234356 L443.624003,121.835028 Z" id="Fill-5" fill="#FF6455"></path>
                    <path d="M435.31595,108.970611 C432.820251,108.970611 430.789758,111.018101 430.789758,113.534692 C430.789758,116.048524 432.820251,118.096014 435.31595,118.096014 L439.918764,118.096014 L439.918764,108.970611 L435.31595,108.970611 Z M443.624003,121.835028 L435.31595,121.835028 C430.776076,121.835028 427.08452,118.109811 427.08452,113.534692 C427.08452,108.956814 430.776076,105.234356 435.31595,105.234356 L443.624003,105.234356 L443.624003,121.835028 Z" id="Fill-7" fill="#FF6455"></path>
                    <path d="M449.323611,118.096566 L453.926425,118.096566 C456.422125,118.096566 458.449881,116.049076 458.449881,113.532485 C458.449881,111.018653 456.422125,108.971163 453.926425,108.971163 L449.323611,108.971163 L449.323611,118.096566 Z M453.926425,121.832821 L445.618373,121.832821 L445.618373,98.3198006 L449.323611,98.3198006 L449.323611,105.232148 L453.926425,105.232148 C458.463563,105.232148 462.157856,108.957366 462.157856,113.532485 C462.157856,118.110363 458.463563,121.832821 453.926425,121.832821 L453.926425,121.832821 Z" id="Fill-9" fill="#FF6455"></path>
                    <mask id="mask-2" fill="white">
                        <use xlink:href="#path-1"></use>
                    </mask>
                    <g id="Clip-12"></g>
                    <polygon id="Fill-11" fill="#FF6455" mask="url(#mask-2)" points="421.748594 121.87366 425.453832 121.87366 425.453832 98.4351443 421.748594 98.4351443"></polygon>
                    <path d="M362.071,120.426344 C364.336832,120.426344 366.060835,118.618924 366.060835,116.331365 C366.060835,114.096234 364.336832,112.26122 362.071,112.26122 C359.780539,112.26122 358.059272,114.096234 358.059272,116.331365 C358.059272,118.618924 359.780539,120.426344 362.071,120.426344 L362.071,120.426344 Z M358.059272,122.139944 L356.099929,122.139944 L356.099929,105.715875 L358.059272,105.715875 L358.059272,112.882089 C358.885699,111.334054 360.467403,110.31031 362.42401,110.31031 C365.705089,110.31031 368.11322,112.953834 368.11322,116.331365 C368.11322,119.758565 365.705089,122.377254 362.42401,122.377254 C360.467403,122.377254 358.885699,121.378344 358.059272,119.83031 L358.059272,122.139944 Z" id="Fill-13" fill="#FF6455" mask="url(#mask-2)"></path>
                    <polygon id="Fill-14" fill="#FF6455" mask="url(#mask-2)" points="372.931398 121.259689 368.492774 110.54762 370.736714 110.54762 374.017793 118.759654 377.391913 110.54762 379.635854 110.54762 372.624908 127.018599 370.359076 127.018599"></polygon>
                    <path d="M347.431478,45.7575351 L347.431478,68.1999003 C340.094888,68.4951583 332.728195,68.4427293 326.335702,67.2727351 C320.052669,66.1192974 315.10779,62.2616278 312.770809,56.6848394 C311.632419,53.9723293 311.651575,50.4485496 312.825539,47.2586597 C314.032341,43.9749496 316.383005,40.8926771 319.623036,38.3457322 C324.28879,34.6784626 330.355639,32.6723641 336.332183,32.6723641 C338.146491,32.6723641 339.952589,32.8572452 341.70943,33.2380452 C345.786834,34.1183003 346.460016,36.1381959 346.714512,36.8997959 C347.499891,39.2591003 347.464316,42.5152162 347.431478,45.7575351 M362.969397,31.391993 C360.364237,23.5773148 354.089413,18.2267988 345.299735,16.3283177 C332.750088,13.6158075 319.207086,16.7477496 309.08199,24.7031583 C303.324367,29.2286075 299.058144,34.9488858 296.743054,41.2486423 C294.053062,48.5693843 294.135157,56.6517264 296.972921,63.4178249 C301.534688,74.303738 311.366978,82.1073786 323.270808,84.2873206 C330.974091,85.6973843 339.282143,85.8077612 347.431478,85.5042249 L347.431478,86.8066713 L364.581203,86.8066713 L364.581203,45.8485959 C364.624987,41.692909 364.676981,36.5217554 362.969397,31.391993" id="Fill-15" fill="#FF6455" mask="url(#mask-2)"></path>
                    <path d="M391.214312,0.0226272464 L374.064587,0.0226272464 L374.064587,45.119833 C374.064587,59.3915548 374.198677,80.153433 374.269826,87.2810157 L391.419551,87.1044128 C391.348401,80.0099432 391.214312,59.333607 391.214312,45.119833 L391.214312,0.0226272464 Z" id="Fill-16" fill="#FF6455" mask="url(#mask-2)"></path>
                    <path d="M202.858504,37.6211084 C206.955064,33.3026157 213.771717,31.5393461 219.064132,33.429549 C221.253342,34.2104649 225.604397,36.6001229 227.536375,43.5262678 C221.458581,43.5345461 215.049668,43.5235084 208.777581,43.5124707 C205.417144,43.5069519 202.122382,43.501433 198.975393,43.501433 C199.916753,41.3546041 201.227543,39.3402272 202.858504,37.6211084 M211.938253,70.0746504 C206.996111,68.877062 202.677894,65.4388243 199.982429,60.79472 C202.81472,60.7974794 205.756471,60.8029983 208.750216,60.8057577 C218.437471,60.8223142 228.455844,60.8388707 237.119643,60.7864417 L245.498844,60.7340128 L245.641143,52.2846678 C245.928477,35.0355316 238.134889,21.8924128 224.78618,17.1268939 C213.071169,12.9436128 199.276409,16.379091 190.464838,25.6672997 C181.828404,34.7733867 178.16695,48.1096649 181.13333,59.6440417 C184.647012,73.2948939 194.914408,83.7365403 207.931999,86.8905577 C210.725978,87.5666157 213.634891,87.8894678 216.571169,87.8894678 C227.785398,87.8894678 239.390948,83.1543026 246.380001,75.2044128 L233.548494,63.7335026 C228.921051,68.9957171 219.225586,71.8406794 211.938253,70.0746504" id="Fill-17" fill="#FF6455" mask="url(#mask-2)"></path>
                    <polygon id="Fill-18" fill="#FF6455" mask="url(#mask-2)" points="81.2109388 41.4718794 69.6135982 15.279462 51.8755231 15.279462 73.9673898 65.7464997 63.0788059 102.234314 62.7121132 103.473294 81.0440115 103.473294 106.991625 16.5184417 107.361054 15.279462 89.026419 15.279462"></polygon>
                    <path d="M138.598619,70.5981125 C135.599402,70.5981125 132.668596,69.8779038 130.030598,68.5147501 L130.030598,34.7532429 C132.668596,33.3900893 135.593928,32.6643617 138.598619,32.6643617 C148.970002,32.6643617 157.406671,41.1744139 157.406671,51.6326168 C157.406671,62.0908197 148.970002,70.5981125 138.598619,70.5981125 M138.598619,15.3710748 C135.689706,15.3710748 132.819105,15.7435965 130.030598,16.4334516 L130.030598,15.5449183 L112.880873,15.5449183 L112.880873,103.272408 L130.030598,103.272408 L130.030598,86.8290226 C132.819105,87.5188777 135.692443,87.8913994 138.598619,87.8913994 C158.42739,87.8913994 174.556396,71.6246168 174.556396,51.6326168 C174.556396,31.6378574 158.42739,15.3710748 138.598619,15.3710748" id="Fill-19" fill="#FF6455" mask="url(#mask-2)"></path>
                    <path d="M294.793562,15.7046887 L279.283009,15.6550191 L279.241961,0.000827826088 L262.092236,0.0449785507 L262.133284,15.6025901 L247.019524,15.5529206 L246.964794,32.8462075 L262.177068,32.8958771 L262.250954,61.2489206 C262.281056,77.2811525 273.50623,89.4998655 288.351812,89.673709 L288.915533,89.6792278 L288.915533,72.3859409 L288.55705,72.3831814 C282.246652,72.3086771 279.411625,66.720851 279.400679,61.2102887 L279.329529,32.9483061 L294.738832,32.9979757 L294.793562,15.7046887 Z" id="Fill-20" fill="#FF6455" mask="url(#mask-2)"></path>
                    <path d="M32.2779877,0 L15.1282629,0.0441507246 L15.1693106,15.6017623 L0.0528146943,15.5548522 L0.000820953796,32.8481391 L15.2130948,32.8950493 L15.2869807,61.2480928 C15.3170823,77.2803246 26.5395207,89.5017971 41.3878384,89.6756406 L41.9488235,89.6784 L41.9488235,72.385113 L41.5930768,72.3823536 C35.2826786,72.3078493 32.4476515,66.7200232 32.4367055,61.2094609 L32.3628196,32.9502377 L47.7748589,32.9971478 L47.8268527,15.7038609 L32.3190354,15.6569507 L32.2779877,0 Z" id="Fill-21" fill="#FF6455" mask="url(#mask-2)"></path>
                    <path d="M433.044371,49.3486446 C443.418491,39.1691432 448.798474,28.0514388 448.798474,16.4894678 L431.64875,16.4894678 C431.64875,25.0215954 425.874708,32.7258968 418.995115,38.8821635 L418.995115,0.0212475362 L401.842654,0.0212475362 L401.842654,40.5019432 C401.842654,56.4513925 401.995898,79.8264417 402.075257,87.883949 L419.224982,87.7101055 C419.172988,82.7265925 419.096366,71.8599954 419.047109,60.5325751 C419.224982,60.41392 419.397382,60.2952649 419.572519,60.1766099 C432.267201,79.2331664 446.98143,89.2195084 462.626073,89.2195084 L462.626073,71.9262214 C450.500585,71.9262214 440.104574,60.2455954 433.044371,49.3486446" id="Fill-22" fill="#FF6455" mask="url(#mask-2)"></path>
                </g>
                <g id="Page-1" transform="translate(662.000000, 16.000000)">
                    <path d="M102.730165,18.2246979 C96.4161616,18.2246979 90.0062678,20.3443854 85.0765259,24.2168437 C81.6441471,26.9141771 79.1534596,30.1792396 77.874923,33.6624687 C76.6062214,37.1109896 76.5865516,40.7751979 77.8208311,43.7179687 C80.3016837,49.6382187 85.548601,53.7313229 92.214202,54.9535521 C98.9978219,56.1956146 106.814106,56.2402396 114.600885,55.9179479 L114.600885,32.1749687 C114.635307,28.7636354 114.669729,25.3299896 113.833763,22.8185937 C113.555927,21.9855937 112.81831,19.7716979 108.412277,18.8221771 C106.55594,18.4205521 104.64797,18.2246979 102.730165,18.2246979 Z M132.082414,75.1785937 L114.600885,75.1785937 L114.600885,73.5596979 C105.992892,73.8919062 97.2127882,73.7853021 89.0891637,72.2978021 C76.6996529,70.0293646 66.4664431,61.9100937 61.7161881,50.5827812 C58.7681779,43.5493854 58.6821226,35.1499687 61.4801506,27.5364479 C63.8897002,20.9790521 68.3326147,15.0240937 74.3319016,10.3111979 C84.8847455,2.02086458 98.9929044,-1.24171875 112.073317,1.58453125 C121.195183,3.55298958 127.705885,9.10136458 130.405564,17.2032812 C132.18568,22.5409271 132.126671,27.9331146 132.082414,32.2691771 L132.082414,75.1785937 Z" id="Fill-1" fill="#4C7EBF"></path>
                    <path d="M51.6056687,75.014225 C44.6228922,75.014225 40.2242348,74.6944125 32.2850146,72.6838083 C20.9699662,69.8178917 11.6612367,63.7141833 6.07255682,55.498225 C-2.17892131,43.360225 -2.01418679,29.6727458 6.52496206,17.9438083 C12.2439543,10.0898083 21.6510328,4.46705833 33.0103382,2.10937083 C40.6397591,0.525183333 44.9400676,0.5574125 51.4409342,0.6020375 C52.6088281,0.609475 53.8726123,0.619391667 55.2642502,0.619391667 L55.2642502,18.2487458 C53.8283553,18.2487458 52.5252315,18.2388292 51.317998,18.2313917 C45.3506746,18.1892458 42.3584073,18.1669333 36.5336899,19.3767667 C29.4230597,20.8518708 23.770453,24.0475167 20.6183687,28.3786208 C16.5172169,34.0112875 16.4754185,39.6216417 20.4929738,45.5294958 C23.6671866,50.1977667 29.3665091,53.7702458 36.5435248,55.587475 C43.9442844,57.4592458 46.9414691,57.4369333 54.9569097,57.3675167 L55.1019744,74.9968708 C53.85786,75.0067875 52.6998009,75.014225 51.6056687,75.014225" id="Fill-3" fill="#4C7EBF"></path>
                    <path d="M188.873531,75.014225 C181.890755,75.014225 177.492097,74.6944125 169.552877,72.6838083 C158.237829,69.8178917 148.929099,63.7141833 143.34042,55.498225 C135.088941,43.360225 135.253676,29.6727458 143.792825,17.9438083 C149.511817,10.0898083 158.918896,4.46705833 170.278201,2.10937083 C177.907622,0.525183333 182.205472,0.5574125 188.706338,0.6020375 C189.876691,0.609475 191.138016,0.619391667 192.532113,0.619391667 L192.532113,18.2487458 C191.093759,18.2487458 189.790636,18.2388292 188.585861,18.2313917 C182.625913,18.1892458 179.628729,18.1669333 173.801553,19.3767667 C166.690922,20.8518708 161.038316,24.0475167 157.886231,28.3786208 C153.78508,34.0112875 153.743281,39.6216417 157.760836,45.5294958 C160.935049,50.1977667 166.634372,53.7702458 173.811387,55.587475 C181.212147,57.4592458 184.209332,57.4369333 192.224772,57.3675167 L192.369837,74.9968708 C191.125723,75.0067875 189.967664,75.014225 188.873531,75.014225" id="Fill-5" fill="#4C7EBF"></path>
                    <path d="M230.99836,18.2165167 C221.188051,18.2165167 213.207032,26.2638917 213.207032,36.1557667 L213.207032,39.6290792 C213.207032,49.5209542 221.188051,57.5683292 230.99836,57.5683292 L234.445491,57.5683292 C244.2558,57.5683292 252.236819,49.5209542 252.236819,39.6290792 L252.236819,36.1557667 C252.236819,26.2638917 244.2558,18.2165167 234.445491,18.2165167 L230.99836,18.2165167 Z M234.445491,75.1976833 L230.99836,75.1976833 C211.549852,75.1976833 195.725504,59.2417667 195.725504,39.6290792 L195.725504,36.1557667 C195.725504,16.5430792 211.549852,0.5871625 230.99836,0.5871625 L234.445491,0.5871625 C253.893999,0.5871625 269.718347,16.5430792 269.718347,36.1557667 L269.718347,39.6290792 C269.718347,59.2417667 253.893999,75.1976833 234.445491,75.1976833 L234.445491,75.1976833 Z" id="Fill-7" fill="#4C7EBF"></path>
                    <path d="M309.43756,18.2165167 C299.627251,18.2165167 291.646232,26.2638917 291.646232,36.1557667 L291.646232,39.6290792 C291.646232,49.5209542 299.627251,57.5683292 309.43756,57.5683292 L312.884691,57.5683292 C322.695001,57.5683292 330.67356,49.5209542 330.67356,39.6290792 L330.67356,36.1557667 C330.67356,26.2638917 322.695001,18.2165167 312.884691,18.2165167 L309.43756,18.2165167 Z M312.884691,75.1976833 L309.43756,75.1976833 C289.989052,75.1976833 274.164704,59.2417667 274.164704,39.6290792 L274.164704,36.1557667 C274.164704,16.5430792 289.989052,0.5871625 309.43756,0.5871625 L312.884691,0.5871625 C332.333199,0.5871625 348.157547,16.5430792 348.157547,36.1557667 L348.157547,39.6290792 C348.157547,59.2417667 332.333199,75.1976833 312.884691,75.1976833 L312.884691,75.1976833 Z" id="Fill-9" fill="#4C7EBF"></path>
                    <path d="M280.532308,111.773077 L276.73112,111.773077 L276.73112,103.180285 C276.73112,100.599473 274.648581,98.4996187 272.089049,98.4996187 C269.529517,98.4996187 267.446978,100.599473 267.446978,103.180285 L267.446978,111.773077 L263.64579,111.773077 L263.64579,103.180285 C263.64579,98.4847437 267.432226,94.6668271 272.089049,94.6668271 C276.745873,94.6668271 280.532308,98.4847437 280.532308,103.180285 L280.532308,111.773077 Z" id="Fill-11" fill="#4C7EBF"></path>
                    <path d="M290.55628,112.347996 C285.899457,112.347996 282.113021,108.5276 282.113021,103.834538 L282.113021,95.2417458 L285.914209,95.2417458 L285.914209,103.834538 C285.914209,106.41535 287.996748,108.515204 290.55628,108.515204 C293.115812,108.515204 295.198351,106.41535 295.198351,103.834538 L295.198351,95.2417458 L298.999539,95.2417458 L298.999539,103.834538 C298.999539,108.5276 295.213104,112.347996 290.55628,112.347996" id="Fill-13" fill="#4C7EBF"></path>
                    <path d="M314.789711,98.5392854 C312.230179,98.5392854 310.14764,100.63914 310.14764,103.219952 C310.14764,105.800765 312.230179,107.900619 314.789711,107.900619 L319.510461,107.900619 L319.510461,98.5392854 L314.789711,98.5392854 Z M323.311649,111.73341 L314.789711,111.73341 C310.132887,111.73341 306.346452,107.913015 306.346452,103.219952 C306.346452,98.5244104 310.132887,94.7064937 314.789711,94.7064937 L323.311649,94.7064937 L323.311649,111.73341 Z" id="Fill-15" fill="#4C7EBF"></path>
                    <path d="M314.789711,98.5392854 C312.230179,98.5392854 310.14764,100.63914 310.14764,103.219952 C310.14764,105.800765 312.230179,107.900619 314.789711,107.900619 L319.510461,107.900619 L319.510461,98.5392854 L314.789711,98.5392854 Z M323.311649,111.73341 L314.789711,111.73341 C310.132887,111.73341 306.346452,107.913015 306.346452,103.219952 C306.346452,98.5244104 310.132887,94.7064937 314.789711,94.7064937 L323.311649,94.7064937 L323.311649,111.73341 Z" id="Fill-17" fill="#4C7EBF"></path>
                    <path d="M329.157757,107.899379 L333.878507,107.899379 C336.438039,107.899379 338.520578,105.799525 338.520578,103.218713 C338.520578,100.6379 336.438039,98.5380458 333.878507,98.5380458 L329.157757,98.5380458 L329.157757,107.899379 Z M333.878507,111.732171 L325.356569,111.732171 L325.356569,87.6123583 L329.157757,87.6123583 L329.157757,94.7052542 L333.878507,94.7052542 C338.535331,94.7052542 342.321766,98.52565 342.321766,103.218713 C342.321766,107.914254 338.535331,111.732171 333.878507,111.732171 L333.878507,111.732171 Z" id="Fill-19" fill="#4C7EBF"></path>
                    <mask id="mask-4" fill="white">
                        <use xlink:href="#path-3"></use>
                    </mask>
                    <g id="Clip-22"></g>
                    <polygon id="Fill-21" fill="#4C7EBF" mask="url(#mask-4)" points="300.87407 111.773821 304.675257 111.773821 304.675257 87.7333417 300.87407 87.7333417"></polygon>
                    <path d="M239.659462,110.289048 C241.985415,110.289048 243.750778,108.434631 243.750778,106.08934 C243.750778,103.79611 241.985415,101.914423 239.659462,101.914423 C237.31138,101.914423 235.543557,103.79611 235.543557,106.08934 C235.543557,108.434631 237.31138,110.289048 239.659462,110.289048 L239.659462,110.289048 Z M235.543557,112.046777 L233.53478,112.046777 L233.53478,95.2008396 L235.543557,95.2008396 L235.543557,102.54909 C236.391817,100.962423 238.014575,99.9137354 240.023353,99.9137354 C243.389346,99.9137354 245.857905,102.623465 245.857905,106.08934 C245.857905,109.604798 243.389346,112.292215 240.023353,112.292215 C238.014575,112.292215 236.391817,111.26584 235.543557,109.679173 L235.543557,112.046777 Z" id="Fill-23" fill="#4C7EBF" mask="url(#mask-4)"></path>
                    <polygon id="Fill-24" fill="#4C7EBF" mask="url(#mask-4)" points="250.799449 111.143865 246.245892 100.156198 248.547257 100.156198 251.913251 108.580406 255.375134 100.156198 257.6765 100.156198 250.484732 117.051719 248.158779 117.051719"></polygon>
                </g>
                <g id="Page-1" transform="translate(1209.000000, 0.000000)">
                    <g id="Group-3" transform="translate(372.766648, 16.111534)">
                        <mask id="mask-6" fill="white">
                            <use xlink:href="#path-5"></use>
                        </mask>
                        <g id="Clip-2"></g>
                        <path d="M44.4601002,18.1245869 C37.9954635,18.1245869 31.434551,20.2848815 26.3885665,24.2302615 C23.6900125,26.3422337 17.4802234,32.1437615 18.052215,40.4353131 C18.1343325,41.6519 18.4373181,42.8883844 18.9498452,44.1078138 C21.4869957,50.1566385 26.8642822,54.3407879 33.7026955,55.5886423 C40.6515429,56.8535516 48.6622557,56.8990314 56.6361571,56.5693023 L56.6361571,26.6861753 C56.4152891,24.7817051 56.0896504,23.5452207 55.8517925,22.831755 C55.5629651,21.9761647 54.8040853,19.7078554 50.2734595,18.7328804 C48.3762599,18.3235614 46.4224275,18.1245869 44.4601002,18.1245869 L44.4601002,18.1245869 Z M24.9699143,111.312871 L24.6839185,93.470544 L43.5822915,93.1663973 C50.3725669,93.0555401 56.5936825,85.9578355 56.6333255,78.2745774 L56.6361571,74.4286846 C47.8269215,74.7669413 38.8392926,74.6617691 30.5255942,73.1467204 C17.8568317,70.8357737 7.40524427,62.5698046 2.56596956,51.0349688 C1.29173105,48.0020289 0.535682861,44.8497044 0.317646493,41.6689549 C-0.500697796,29.8072324 5.01817079,18.3207189 15.4612633,10.1542371 C26.2328262,1.72624589 40.6373847,-1.59094323 53.9998992,1.28281701 C63.3075036,3.28393195 69.9505338,8.91775271 72.7028889,17.1467694 C73.4787586,19.4662436 74.0337603,22.1438718 74.3480725,25.1000643 C73.846872,20.5890282 74.4132002,25.2052365 74.4132002,25.2052365 L74.4216951,25.7367827 C74.4273584,25.9812371 74.4216951,26.2200065 74.4132002,26.4530909 L74.4103686,78.3854346 C74.319756,95.7957031 60.3314488,110.744373 43.8682872,111.008725 L24.9699143,111.312871 Z" id="Fill-1" fill="#42CE9F" mask="url(#mask-6)"></path>
                    </g>
                    <path d="M17.864824,33.6943413 C17.7940329,49.0494875 17.7543899,63.9896298 17.7940329,72.9321122 C31.1169045,72.2072765 37.7146283,69.4870109 42.933343,63.2022593 C46.6342979,58.7452305 47.4356524,53.6401134 45.1929926,48.8277731 C42.2565807,42.534494 33.6200753,35.8887458 17.864824,33.6943413 M9.10372626,90.9847841 L9.10372626,90.9847841 C6.73364263,90.9847841 4.46266644,90.0353915 2.79199816,88.3497932 L2.78916652,88.3469507 C0.169898468,85.6977474 0.133087134,83.1679288 0.0679593874,78.5687754 C0.0339796937,76.2976237 0.0141582057,73.0799218 0.00566328228,69.234029 C-0.00849492342,62.4887936 0.00566328228,53.1284647 0.0538011817,41.4145518 C0.133087134,21.2555928 0.280332473,1.16201106 0.280332473,1.16201106 L18.0573755,1.28992324 C18.0233959,5.74410948 17.9922478,10.6388821 17.9610997,15.7468417 C38.9973618,18.182858 54.7950877,27.3356849 61.2908725,41.2610572 C66.4727758,52.3695191 64.7171582,64.8423776 56.5903482,74.6290804 C44.0575045,89.7227172 26.2578083,90.9847841 9.10372626,90.9847841" id="Fill-4" fill="#42CE9F"></path>
                    <path d="M111.118978,34.3967213 C104.852557,34.3967213 98.4926906,36.488796 93.5996147,40.3147914 C90.1988137,42.9753646 87.7324543,46.195909 86.4667107,49.6267978 C85.2349468,52.9667269 85.2122937,56.6562826 86.4100779,59.4987754 C88.8651107,65.3287281 94.0555089,69.359383 100.653233,70.5645999 C107.361391,71.7868718 115.097434,71.8380367 122.80233,71.5253625 L122.80233,48.0918517 C122.836309,44.7149702 122.873121,41.3210338 122.046282,38.8480651 C121.777276,38.0464821 121.06087,35.91177 116.756776,34.9851173 C114.913378,34.5900108 113.021841,34.3967213 111.118978,34.3967213 L111.118978,34.3967213 Z M140.579373,90.8230462 L122.80233,90.8230462 L122.80233,89.3847448 C114.259268,89.7059465 105.546309,89.5950893 97.4761314,88.122678 C85.0537218,85.8572113 74.7975175,77.7532642 70.0346971,66.4458278 C67.0756322,59.4220281 66.9878513,51.0309893 69.7968393,43.427321 C72.2122292,36.8839025 76.6635691,30.9402501 82.6751432,26.2387669 C93.2456596,17.9699553 107.37838,14.7181436 120.480384,17.5350539 C129.643575,19.5077439 136.184666,25.0562899 138.897378,33.1659219 C140.681312,38.495596 140.624679,43.8707499 140.579373,48.1884965 L140.579373,90.8230462 Z" id="Fill-6" fill="#42CE9F"></path>
                    <path d="M273.879163,90.9123005 C273.780055,81.23077 273.641305,58.7466518 273.641305,43.417088 L273.641305,1.02415016 L291.418348,1.02415016 L291.418348,43.417088 C291.418348,58.6869594 291.55993,81.0858028 291.656206,90.7332234 L273.879163,90.9123005 Z" id="Fill-8" fill="#42CE9F"></path>
                    <path d="M195.205412,91.0396442 C188.219753,91.0396442 183.819383,90.721285 175.879461,88.72017 C164.547233,85.8634647 155.222639,79.7748451 149.621653,71.5770959 C141.344765,59.4567065 141.509001,45.7871585 150.074715,34.0732456 C155.808788,26.2336504 165.229658,20.6254121 176.607193,18.2746706 C184.241297,16.6970871 188.531233,16.7283545 195.035513,16.7738344 C196.204981,16.7823618 197.46223,16.7908893 198.852565,16.7908893 L198.852565,34.6360592 C197.416923,34.6360592 196.1172,34.6275317 194.910921,34.6190043 C188.972969,34.5763669 185.991251,34.5564694 180.19205,35.7531589 C173.135601,37.2113577 167.528951,40.3665247 164.405651,44.6331064 C160.359236,50.16744 160.319593,55.6790335 164.28389,61.4834039 C167.429844,66.0910847 173.084631,69.6157758 180.20904,71.4093888 C187.574139,73.2683791 190.567183,73.2456391 198.543916,73.1774193 L198.693993,91.0225892 C197.450903,91.0311167 196.295593,91.0396442 195.205412,91.0396442" id="Fill-10" fill="#42CE9F"></path>
                    <g id="Group-14" transform="translate(205.029833, 0.875772)">
                        <mask id="mask-8" fill="white">
                            <use xlink:href="#path-7"></use>
                        </mask>
                        <g id="Clip-13"></g>
                        <path d="M31.6177793,49.9246911 C42.4289852,39.484215 48.0384663,28.0772913 48.0384663,16.2297812 L31.4195644,16.2297812 C31.4195644,22.1904887 28.7068522,30.55026 17.8446768,40.0385011 L17.8446768,0.146956879 L0.0648020825,0.146956879 L0.0648020825,40.9111464 C0.0648020825,57.3038024 0.220542345,81.3313942 0.305491579,89.6144183 L18.0825347,89.4353412 C18.0287335,84.2136819 17.9494475,72.707271 17.8956463,60.8228085 C18.1165143,60.6749989 18.3345507,60.5271893 18.5525871,60.3793797 C31.6234426,80.1062798 46.7727227,90.4415837 62.859276,90.4415837 L62.859276,73.7561508 C49.9639822,73.7561508 38.9885412,61.3429847 31.6177793,49.9246911" id="Fill-12" fill="#42CE9F" mask="url(#mask-8)"></path>
                    </g>
                    <path d="M330.525577,34.2725044 C320.827206,34.2725044 312.935423,42.1945319 312.935423,51.9300698 L312.935423,55.3836985 C312.935423,65.1220789 320.827206,73.0441064 330.525577,73.0441064 L333.966021,73.0441064 C343.667224,73.0441064 351.556176,65.1220789 351.556176,55.3836985 L351.556176,51.9300698 C351.556176,42.1945319 343.667224,34.2725044 333.966021,34.2725044 L330.525577,34.2725044 Z M333.966021,90.8892763 L330.525577,90.8892763 C311.024065,90.8892763 295.155548,74.962789 295.155548,55.3836985 L295.155548,51.9300698 C295.155548,32.3538217 311.024065,16.4273345 330.525577,16.4273345 L333.966021,16.4273345 C353.467534,16.4273345 369.336051,32.3538217 369.336051,51.9300698 L369.336051,55.3836985 C369.336051,74.962789 353.467534,90.8892763 333.966021,90.8892763 L333.966021,90.8892763 Z" id="Fill-15" fill="#42CE9F"></path>
                    <path d="M329.931499,127.363576 L326.10312,127.363576 L326.10312,118.750822 C326.10312,116.164154 324.007706,114.060709 321.433744,114.060709 C318.856951,114.060709 316.758704,116.164154 316.758704,118.750822 L316.758704,127.363576 L312.933157,127.363576 L312.933157,118.750822 C312.933157,114.046497 316.744546,110.220501 321.433744,110.220501 C326.12011,110.220501 329.931499,114.046497 329.931499,118.750822 L329.931499,127.363576 Z" id="Fill-17" fill="#42CE9F"></path>
                    <path d="M340.021486,127.939749 C335.33512,127.939749 331.520899,124.113754 331.520899,119.406585 L331.520899,110.796675 L335.349278,110.796675 L335.349278,119.406585 C335.349278,121.993254 337.444692,124.096699 340.021486,124.096699 C342.598279,124.096699 344.693694,121.993254 344.693694,119.406585 L344.693694,110.796675 L348.519241,110.796675 L348.519241,119.406585 C348.519241,124.113754 344.707852,127.939749 340.021486,127.939749" id="Fill-19" fill="#42CE9F"></path>
                    <path d="M364.414942,114.101641 C361.838148,114.101641 359.742734,116.205086 359.742734,118.791754 C359.742734,121.378423 361.838148,123.481867 364.414942,123.481867 L369.166436,123.481867 L369.166436,114.101641 L364.414942,114.101641 Z M372.994814,127.322075 L364.414942,127.322075 C359.728576,127.322075 355.914355,123.49608 355.914355,118.791754 C355.914355,114.087429 359.728576,110.258591 364.414942,110.258591 L372.994814,110.258591 L372.994814,127.322075 Z" id="Fill-21" fill="#42CE9F"></path>
                    <path d="M364.414942,114.101641 C361.838148,114.101641 359.742734,116.205086 359.742734,118.791754 C359.742734,121.378423 361.838148,123.481867 364.414942,123.481867 L369.166436,123.481867 L369.166436,114.101641 L364.414942,114.101641 Z M372.994814,127.322075 L364.414942,127.322075 C359.728576,127.322075 355.914355,123.49608 355.914355,118.791754 C355.914355,114.087429 359.728576,110.258591 364.414942,110.258591 L372.994814,110.258591 L372.994814,127.322075 Z" id="Fill-23" fill="#42CE9F"></path>
                    <path d="M378.878115,123.481867 L383.629609,123.481867 C386.206402,123.481867 388.301817,121.378423 388.301817,118.791754 C388.301817,116.205086 386.206402,114.101641 383.629609,114.101641 L378.878115,114.101641 L378.878115,123.481867 Z M383.629609,127.324918 L375.049736,127.324918 L375.049736,103.152359 L378.878115,103.152359 L378.878115,110.258591 L383.629609,110.258591 C388.315975,110.258591 392.130196,114.087429 392.130196,118.791754 C392.130196,123.49608 388.315975,127.324918 383.629609,127.324918 L383.629609,127.324918 Z" id="Fill-25" fill="#42CE9F"></path>
                    <mask id="mask-10" fill="white">
                        <use xlink:href="#path-9"></use>
                    </mask>
                    <g id="Clip-28"></g>
                    <polygon id="Fill-27" fill="#42CE9F" mask="url(#mask-10)" points="350.404264 127.36386 354.232643 127.36386 354.232643 103.273733 350.404264 103.273733"></polygon>
                    <path d="M288.788886,125.876383 C291.130653,125.876383 292.908924,124.017393 292.908924,121.669494 C292.908924,119.369917 291.130653,117.485345 288.788886,117.485345 C286.424466,117.485345 284.646195,119.369917 284.646195,121.669494 C284.646195,124.017393 286.424466,125.876383 288.788886,125.876383 L288.788886,125.876383 Z M284.646195,127.638729 L282.621572,127.638729 L282.621572,110.757164 L284.646195,110.757164 L284.646195,118.122063 C285.498519,116.530267 287.132376,115.478545 289.154168,115.478545 C292.543642,115.478545 295.026991,118.195968 295.026991,121.669494 C295.026991,125.191343 292.543642,127.883183 289.154168,127.883183 C287.132376,127.883183 285.498519,126.854201 284.646195,125.265247 L284.646195,127.638729 Z" id="Fill-29" fill="#42CE9F" mask="url(#mask-10)"></path>
                    <polygon id="Fill-30" fill="#42CE9F" mask="url(#mask-10)" points="300.002185 126.733111 295.420589 115.724136 297.73404 115.724136 301.123515 124.163497 304.609265 115.724136 306.922716 115.724136 299.685041 132.654023 297.346105 132.654023"></polygon>
                </g>
            </g>
        </g>
    </g>
</svg>