<svg id="Layer_1" data-name="Layer 1" xmlns="http://www.w3.org/2000/svg" viewBox="0 0 274.23 122.53"><defs><style>.cls-1{fill:#414042;}.cls-2{fill:#75758c;}.cls-3{fill:#bcbec0;}</style></defs><title>Artboard 1</title><path class="cls-1" d="M187.3,81H166.47a20.64,20.64,0,1,1,0-41.27H187.3ZM166.47,49a11.34,11.34,0,1,0,0,22.69H178V49Z"/><path class="cls-2" d="M82.74,81.11H73.45V60.28a11.34,11.34,0,0,0-22.69,0V81.11H41.47V60.28a20.64,20.64,0,0,1,41.27,0Z"/><path class="cls-2" d="M107.24,82.5A20.66,20.66,0,0,1,86.61,61.86V41H95.9V61.86a11.34,11.34,0,1,0,22.69,0V41h9.29V61.86A20.66,20.66,0,0,1,107.24,82.5Z"/><path class="cls-2" d="M187.3,81H166.47a20.64,20.64,0,1,1,0-41.27H187.3ZM166.47,49a11.34,11.34,0,1,0,0,22.69H178V49Z"/><path class="cls-2" d="M213.13,81H192.3V22.93h9.29V39.74h11.54a20.64,20.64,0,0,1,0,41.27Zm-11.54-9.29h11.54a11.34,11.34,0,0,0,0-22.69H201.59Z"/><rect class="cls-2" x="132.46" y="22.83" width="9.29" height="58.27"/><path class="cls-3" d="M41.47,40.13v9.29H20.64a11.34,11.34,0,0,0,0,22.69H41.47V81.4H20.64a20.64,20.64,0,0,1,0-41.27Z"/><path class="cls-3" d="M127.88,41.47h-9.29V20.64a11.34,11.34,0,0,0-22.69,0V41.47H86.61V20.64a20.64,20.64,0,0,1,41.27,0Z"/><path class="cls-3" d="M41.47,81.06h9.29V101.9a11.34,11.34,0,0,0,22.69,0V81.06h9.29V101.9a20.64,20.64,0,0,1-41.27,0Z"/><path class="cls-3" d="M192.39,81.06h9.29V101.9a11.34,11.34,0,0,0,22.69,0V81.06h9.29V101.9a20.64,20.64,0,0,1-41.27,0Z"/><path class="cls-3" d="M232.77,82V72.72H253.6a11.34,11.34,0,0,0,0-22.69H232.77V40.74H253.6a20.64,20.64,0,0,1,0,41.27Z"/></svg>