<svg id="Layer_1" data-name="Layer 1" xmlns="http://www.w3.org/2000/svg" viewBox="0 0 162.21 47"><defs><style>.cls-1{fill:#BBBDBF;}</style></defs><path class="cls-1" d="M141.62,45.12l-.1-6.28,6.67-.11c2.4,0,4.59-2.54,4.61-5.24V32.14a43.17,43.17,0,0,1-9.22-.45,13.16,13.16,0,0,1-9.87-7.78,10.31,10.31,0,0,1-.79-3.3,13,13,0,0,1,5.35-11.09,16.7,16.7,0,0,1,13.61-3.12A8.46,8.46,0,0,1,158.47,12a13.26,13.26,0,0,1,.58,2.8c-.18-1.59,0,0,0,0V15q0,.13,0,.25V33.54c0,6.13-5,11.38-10.79,11.48Zm6.88-32.78a10.52,10.52,0,0,0-6.38,2.15c-1,.74-3.15,2.78-2.94,5.7a4.06,4.06,0,0,0,.32,1.29,6.82,6.82,0,0,0,5.21,4,38.07,38.07,0,0,0,8.1.35V15.35a6.78,6.78,0,0,0-.28-1.36c-.1-.3-.37-1.1-2-1.44A9.81,9.81,0,0,0,148.5,12.34Z"/><path class="cls-1" d="M4.37,32.3h0a3.14,3.14,0,0,1-2.23-.93h0c-.92-.93-.94-1.82-1-3.44,0-.8,0-1.93,0-3.28,0-2.37,0-5.67,0-9.79C1.2,7.77,1.25.7,1.25.7l6.28,0c0,1.57,0,3.29,0,5.09,7.43.86,13,4.08,15.3,9a10.81,10.81,0,0,1-1.66,11.74C16.71,31.86,10.43,32.3,4.37,32.3ZM7.47,12.15c0,5.4,0,10.66,0,13.8,4.7-.25,7-1.21,8.88-3.42a4.56,4.56,0,0,0,.8-5.06C16.08,15.26,13,12.92,7.47,12.15Z"/><path class="cls-1" d="M50.8,32.24H44.52v-.51a42,42,0,0,1-8.94-.44,12.93,12.93,0,0,1-9.69-7.63,11.11,11.11,0,0,1-.08-8.1,13.85,13.85,0,0,1,4.55-6A16.38,16.38,0,0,1,43.7,6.46a8.33,8.33,0,0,1,6.5,5.5,15.71,15.71,0,0,1,.59,5.28ZM40.4,12.39a10.2,10.2,0,0,0-6.19,2.08,7.59,7.59,0,0,0-2.52,3.28,4.85,4.85,0,0,0,0,3.47,6.59,6.59,0,0,0,5,3.89,36.9,36.9,0,0,0,7.82.34V17.21A10.77,10.77,0,0,0,44.26,14c-.09-.28-.35-1-1.87-1.36A9.51,9.51,0,0,0,40.4,12.39Z"/><path class="cls-1" d="M97.88,32.27c0-3.41-.08-11.32-.08-16.71V.65h6.28V15.57c0,5.37,0,13.25.08,16.65Z"/><path class="cls-1" d="M70.09,32.32a24,24,0,0,1-6.83-.82,15.7,15.7,0,0,1-9.27-6,10.87,10.87,0,0,1,.16-13.19,15.24,15.24,0,0,1,9.37-5.56A26.5,26.5,0,0,1,70,6.19h1.35v6.28H70a20.72,20.72,0,0,0-5.2.4A9.06,9.06,0,0,0,59.22,16a4.67,4.67,0,0,0,0,5.93,9.49,9.49,0,0,0,5.62,3.49,20.43,20.43,0,0,0,6.48.62l.05,6.28Z"/><path class="cls-1" d="M84.73,18.16c3.82-3.67,5.8-7.69,5.8-11.85H84.66c0,2.1-1,5-4.79,8.38V.65H73.59V15c0,5.77.05,14.22.08,17.13l6.28-.06c0-1.84,0-5.88-.07-10.07l.23-.16c4.62,6.94,10,10.58,15.65,10.58V26.55C91.21,26.55,87.33,22.18,84.73,18.16Z"/><path class="cls-1" d="M119.1,32.27h-1.21a12.5,12.5,0,0,1-12.49-12.49V18.56A12.5,12.5,0,0,1,117.88,6.07h1.21a12.5,12.5,0,0,1,12.49,12.49v1.21A12.5,12.5,0,0,1,119.1,32.27Zm-1.21-19.92a6.22,6.22,0,0,0-6.21,6.21v1.21A6.22,6.22,0,0,0,117.88,26h1.21a6.22,6.22,0,0,0,6.21-6.21V18.56a6.22,6.22,0,0,0-6.21-6.21Z"/><path class="cls-1" d="M117.67,45.1h-1.35v-3a1.65,1.65,0,1,0-3.3,0v3h-1.35v-3a3,3,0,1,1,6,0Z"/><path class="cls-1" d="M121.24,45.3a3,3,0,0,1-3-3v-3h1.35v3a1.65,1.65,0,1,0,3.3,0v-3h1.35v3A3,3,0,0,1,121.24,45.3Z"/><path class="cls-1" d="M132.88,45.08h-3a3,3,0,1,1,0-6h3Zm-3-4.65a1.65,1.65,0,1,0,0,3.3h1.68v-3.3Z"/><path class="cls-1" d="M132.88,45.08h-3a3,3,0,1,1,0-6h3Zm-3-4.65a1.65,1.65,0,1,0,0,3.3h1.68v-3.3Z"/><path class="cls-1" d="M136.64,45.08h-3v-8.5H135v2.5h1.68a3,3,0,1,1,0,6ZM135,43.73h1.68a1.65,1.65,0,1,0,0-3.3H135Z"/><rect class="cls-1" x="124.9" y="36.62" width="1.35" height="8.48"/><path class="cls-1" d="M101.68,45.2H101V39.26h.71v2.59a1.77,1.77,0,0,1,1.59-.93,2.18,2.18,0,0,1,0,4.36,1.76,1.76,0,0,1-1.59-.92Zm1.46-.62a1.48,1.48,0,1,0-1.46-1.48A1.45,1.45,0,0,0,103.14,44.58Z"/><path class="cls-1" d="M107.1,44.88,105.48,41h.82l1.2,3,1.23-3h.82L107,47h-.83Z"/></svg>