<svg id="Layer_1" xmlns="http://www.w3.org/2000/svg" viewBox="0 0 139 46"><style>.st0{fill:#4c7ebf}</style><title>Artboard 65 copy 6</title><path class="st0" d="M52.7 29.5h-7v-.6c-3.4.2-6.8 0-10.2-.5-4.9-.8-9-4.1-10.9-8.6-1.2-2.9-1.2-6.2-.1-9.1 1-2.7 2.8-5 5.1-6.8C33.9.6 39.4-.6 44.7.5c3.4.6 6.2 2.9 7.3 6.2.6 1.9.8 3.9.7 6v16.8zM41 7c-2.5 0-5 .8-7 2.4-1.3 1-2.3 2.2-2.9 3.7-.5 1.3-.5 2.7 0 4 1 2.4 3.2 4 5.7 4.4 3 .4 6 .6 8.9.4v-9.4c.1-1.3 0-2.5-.3-3.7-.1-.3-.4-1.2-2.2-1.6C42.6 7 41.8 7 41 7zM20.6 29.4a25 25 0 0 1-7.7-.9c-4.2-.9-7.9-3.3-10.5-6.8-3.3-4.4-3.2-10.5.2-14.8C5.2 3.6 9 1.3 13.2.6c2.4-.5 4.9-.7 7.4-.6h1.5v7h-1.6c-2-.1-4 .1-5.9.5-2.5.3-4.7 1.6-6.4 3.5-1.6 2-1.7 4.8-.1 6.8 1.6 2.1 3.9 3.5 6.4 4 2.4.6 4.9.9 7.3.7l.1 7-1.3-.1zM75.4 29.4a25 25 0 0 1-7.7-.9c-4.2-.9-7.9-3.3-10.4-6.8-3.3-4.4-3.3-10.5.1-14.8C60 3.6 63.8 1.4 67.9.6c2.4-.5 4.9-.7 7.4-.6h1.6v7h-1.6c-2-.1-4 .1-5.9.5-2.5.4-4.7 1.6-6.4 3.6-1.6 2-1.7 4.8 0 6.8 1.6 2.1 3.9 3.5 6.4 4 2.4.6 4.9.9 7.4.7l.1 7-1.5-.2zM93.6 29.5h-1.4c-7.8 0-14.1-6.3-14.1-14v-1.4c0-7.8 6.3-14 14.1-14h1.4c7.8 0 14.1 6.3 14.1 14v1.4c0 7.7-6.3 14-14.1 14zM92.2 7c-3.9 0-7.1 3.2-7.1 7.1v1.4c0 3.9 3.2 7.1 7.1 7.1h1.4c3.9 0 7.1-3.2 7.1-7.1v-1.4c0-3.9-3.2-7.1-7.1-7.1h-1.4zM124.9 29.5h-1.4c-7.8 0-14.1-6.3-14.1-14v-1.4c0-7.8 6.3-14 14.1-14h1.4c7.8 0 14.1 6.3 14.1 14v1.4c0 7.7-6.3 14-14.1 14zM123.5 7c-3.9 0-7.1 3.2-7.1 7.1v1.4c0 3.9 3.2 7.1 7.1 7.1h1.4c3.9 0 7.1-3.2 7.1-7.1v-1.4c0-3.9-3.2-7.1-7.1-7.1h-1.4zM112 43.9h-1.5v-3.4c0-1-.8-1.9-1.9-1.9-1 0-1.9.8-1.9 1.8v3.4h-1.5v-3.4c0-1.9 1.5-3.4 3.4-3.4s3.4 1.5 3.4 3.4v3.5zM116 44.2c-1.9 0-3.4-1.5-3.4-3.4v-3.4h1.6v3.4c0 1 .8 1.8 1.9 1.8 1 0 1.9-.8 1.9-1.8v-3.4h1.5v3.4c-.1 1.9-1.6 3.4-3.5 3.4zM129.1 43.9h-3.4c-1.9 0-3.4-1.5-3.4-3.4s1.5-3.4 3.4-3.4h3.4v6.8zm-3.4-5.2c-1 0-1.9.8-1.9 1.8s.8 1.9 1.9 1.9h1.9v-3.7h-1.9z"/><path class="st0" d="M129.1 43.9h-3.4c-1.9 0-3.4-1.5-3.4-3.4s1.5-3.4 3.4-3.4h3.4v6.8zm-3.4-5.2c-1 0-1.9.8-1.9 1.8s.8 1.9 1.9 1.9h1.9v-3.7h-1.9zM133.3 43.9h-3.4v-9.5h1.5v2.8h1.9c1.9 0 3.4 1.5 3.4 3.4 0 1.8-1.5 3.3-3.4 3.3zm-1.9-1.5h1.9c1 0 1.9-.8 1.9-1.8s-.8-1.9-1.9-1.9h-1.9v3.7zM120.1 34.4h1.5v9.5h-1.5zM94 44h-.8v-6.6h.8v2.9c.3-.7 1-1.1 1.8-1 1.4 0 2.5 1.1 2.5 2.4 0 1.4-1.1 2.4-2.5 2.4-.7 0-1.4-.4-1.8-1v.9zm1.7-.7c.9 0 1.7-.7 1.7-1.6 0-.9-.7-1.7-1.6-1.7-.9 0-1.7.7-1.7 1.6-.1.9.6 1.7 1.6 1.7-.1 0 0 0 0 0zM100.1 43.7l-1.8-4.3h.9l1.3 3.3 1.4-3.3h.9L100 46h-.9l1-2.3z"/></svg>