<?xml version="1.0" encoding="UTF-8" standalone="no"?>
<svg width="141px" height="142px" viewBox="0 0 141 142" version="1.1" xmlns="http://www.w3.org/2000/svg" xmlns:xlink="http://www.w3.org/1999/xlink">
    <!-- Generator: sketchtool 42 (36781) - http://www.bohemiancoding.com/sketch -->
    <title>798469F0-8A70-4D42-8C8E-4C5DD6E6CD84</title>
    <desc>Created with sketchtool.</desc>
    <defs></defs>
    <g id="Page-1" stroke="none" stroke-width="1" fill="none" fill-rule="evenodd">
        <g id="Nulab-logos-" transform="translate(-1165.000000, -2619.000000)">
            <g id="Group-6" transform="translate(1165.000000, 2619.000000)">
                <path d="M111.866948,141.27641 L28.8957266,141.27641 C13.1706231,141.27641 0.303353347,128.389559 0.303353347,112.638806 L0.303353347,29.5308457 C0.303353347,13.7800933 13.1706231,0.893241768 28.8957266,0.893241768 L111.866948,0.893241768 C127.592051,0.893241768 140.457917,13.7800933 140.457917,29.5308457 L140.457917,112.638806 C140.457917,128.389559 127.592051,141.27641 111.866948,141.27641" id="Fill-1" fill="#4C7EBF"></path>
                <path d="M87.0569931,103.242765 C80.958129,103.242765 77.1275651,102.9672 70.2173907,101.228052 C60.3763927,98.7521903 52.2787294,93.4785071 47.4178856,86.3756952 C40.2382101,75.8901903 40.3799789,64.063418 47.8081006,53.9265863 C52.7854475,47.1387051 60.9673298,42.2797744 70.8462264,40.2425665 C77.4883034,38.8717744 81.2360519,38.9012992 86.8759221,38.9392596 C87.8963765,38.9476952 88.992628,38.9561309 90.2067862,38.9561309 L90.2067862,54.1880913 C88.9561331,54.1880913 87.8205793,54.1796556 86.7692446,54.1726259 C81.5785428,54.1332596 78.9803846,54.1163883 73.9132041,55.1610022 C67.7273136,56.4375962 62.8103237,59.2002695 60.0675895,62.9414774 C56.500912,67.8088437 56.4658207,72.6579329 59.9595083,77.7629032 C62.7218937,81.7965467 67.6823968,84.8853982 73.9230296,86.4558338 C80.3503481,88.0712596 82.9639465,88.0445467 89.9400925,87.9939329 L90.0650174,103.225893 C88.9954353,103.234329 87.9974394,103.242765 87.0569931,103.242765" id="Fill-3" fill="#FFFFFF"></path>
            </g>
        </g>
    </g>
</svg>