<svg id="Layer_1" data-name="Layer 1" xmlns="http://www.w3.org/2000/svg" viewBox="0 0 144.53 47"><defs><style>.cls-1{fill:#BBBDBF;}</style></defs><path class="cls-1" d="M54.39,30.17H47.28v-.65A48.58,48.58,0,0,1,36.9,29a14.85,14.85,0,0,1-11.13-8.76,12.75,12.75,0,0,1-.1-9.3A15.91,15.91,0,0,1,30.9,4,18.83,18.83,0,0,1,46.25.48a9.55,9.55,0,0,1,7.46,6.3,18.08,18.08,0,0,1,.68,6.08Zm-11.94-23a11.83,11.83,0,0,0-7.18,2.42,8.82,8.82,0,0,0-2.93,3.81,5.58,5.58,0,0,0,0,4.06A7.66,7.66,0,0,0,38.17,22a42.85,42.85,0,0,0,9.1.39V12.82A12.49,12.49,0,0,0,47,9c-.11-.34-.41-1.23-2.21-1.61A11,11,0,0,0,42.45,7.19Z"/><path class="cls-1" d="M21.66,30.1a27.6,27.6,0,0,1-7.86-.94A18,18,0,0,1,3.14,22.23,12.48,12.48,0,0,1,3.32,7.08,17.53,17.53,0,0,1,14.09.69a30.59,30.59,0,0,1,7.5-.61h1.56V7.2H21.54a24,24,0,0,0-6,.46,10.52,10.52,0,0,0-6.47,3.63A5.45,5.45,0,0,0,9,18.21a11,11,0,0,0,6.53,4.06A23.62,23.62,0,0,0,23,23l.06,7.11Z"/><path class="cls-1" d="M77.48,30.1a27.6,27.6,0,0,1-7.86-.94A18,18,0,0,1,59,22.23a12.48,12.48,0,0,1,.18-15.15A17.53,17.53,0,0,1,69.92.69a30.59,30.59,0,0,1,7.5-.61H79V7.2H77.37a24,24,0,0,0-6,.46,10.52,10.52,0,0,0-6.47,3.63,5.45,5.45,0,0,0-.05,6.92,11,11,0,0,0,6.53,4.06,23.62,23.62,0,0,0,7.49.72l.06,7.11Z"/><path class="cls-1" d="M96,30.17h-1.4A14.36,14.36,0,0,1,80.27,15.83v-1.4A14.36,14.36,0,0,1,94.62.08H96a14.36,14.36,0,0,1,14.35,14.35v1.4A14.36,14.36,0,0,1,96,30.17Zm-1.4-23a7.24,7.24,0,0,0-7.24,7.24v1.4a7.24,7.24,0,0,0,7.24,7.24H96a7.24,7.24,0,0,0,7.24-7.24v-1.4A7.24,7.24,0,0,0,96,7.19Z"/><path class="cls-1" d="M127.92,30.17h-1.4a14.36,14.36,0,0,1-14.35-14.35v-1.4A14.36,14.36,0,0,1,126.52.08h1.4a14.36,14.36,0,0,1,14.35,14.35v1.4A14.36,14.36,0,0,1,127.92,30.17Zm-1.4-23a7.24,7.24,0,0,0-7.24,7.24v1.4a7.24,7.24,0,0,0,7.24,7.24h1.4a7.24,7.24,0,0,0,7.24-7.24v-1.4a7.24,7.24,0,0,0-7.24-7.24Z"/><path class="cls-1" d="M114.76,44.93h-1.55V41.46a1.89,1.89,0,1,0-3.78,0v3.47h-1.55V41.46a3.43,3.43,0,1,1,6.87,0Z"/><path class="cls-1" d="M118.84,45.16a3.44,3.44,0,0,1-3.43-3.43V38.26H117v3.47a1.89,1.89,0,0,0,3.78,0V38.26h1.55v3.47A3.44,3.44,0,0,1,118.84,45.16Z"/><path class="cls-1" d="M132.16,44.91H128.7a3.43,3.43,0,1,1,0-6.87h3.47Zm-3.47-5.32a1.89,1.89,0,1,0,0,3.78h1.92V39.59Z"/><path class="cls-1" d="M132.16,44.91H128.7a3.43,3.43,0,1,1,0-6.87h3.47Zm-3.47-5.32a1.89,1.89,0,1,0,0,3.78h1.92V39.59Z"/><path class="cls-1" d="M136.46,44.91H133V35.18h1.55V38h1.92a3.43,3.43,0,1,1,0,6.87Zm-1.92-1.55h1.92a1.89,1.89,0,1,0,0-3.78h-1.92Z"/><rect class="cls-1" x="123.04" y="35.23" width="1.55" height="9.7"/><path class="cls-1" d="M96.47,45h-.82V38.24h.82v3a2,2,0,0,1,1.82-1.06,2.5,2.5,0,0,1,0,5,2,2,0,0,1-1.82-1.05Zm1.67-.71a1.69,1.69,0,1,0-1.67-1.69A1.66,1.66,0,0,0,98.14,44.33Z"/><path class="cls-1" d="M102.67,44.67l-1.85-4.43h.94l1.37,3.4,1.41-3.4h.94l-2.92,6.81h-.95Z"/></svg>