<?xml version="1.0" encoding="UTF-8" standalone="no"?>
<svg width="1519px" height="1386px" viewBox="0 0 1519 1386" version="1.1" xmlns="http://www.w3.org/2000/svg" xmlns:xlink="http://www.w3.org/1999/xlink">
    <defs></defs>
    <g id="Page-1" stroke="none" stroke-width="1" fill="none" fill-rule="evenodd">
        <g id="404-">
            <g id="Page-1" transform="translate(-614.000000, -381.000000)">
                <g id="Group-3" transform="translate(0.000000, 0.768762)" fill="#000000">
                    <path d="M604.608198,54.4309526 C485.891818,118.937308 450.083187,279.914125 439.508293,365.992458 C423.237557,498.52823 429.703205,620.581539 423.237557,777.536646 C420.436619,845.056574 409.261782,958.867725 390.685242,1042.56844 C374.349452,1116.083 339.52386,1186.7249 223.247006,1214.61309 C180.094498,1224.95102 37.7092925,1212.9437 6.96764824,1300.66975 C-2.98561866,1329.08911 -7.26834243,1391.32264 29.3787623,1426.40149 C89.1670318,1483.58349 210.449432,1466.71977 251.162414,1454.09456 C318.587304,1433.16577 359.108737,1410.15566 398.730257,1360.91229 C436.060429,1314.53796 476.708357,1247.16618 486.791732,1172.00392 C514.042143,968.627509 511.580932,989.108241 520.890887,731.032232 C523.99541,644.935832 508.093313,330.339074 567.40452,254.381865 C572.438979,349.681586 580.40087,493.906696 576.696404,674.446442 C573.1871,844.348348 567.40452,1021.66133 558.094565,1105.36205 C547.028151,1204.98339 504.706889,1260.23945 433.342616,1329.8154 C381.284934,1380.60169 336.484391,1455.97714 432.421017,1496.21231 C465.067299,1509.88541 495.805329,1516.77615 534.870275,1519.19352 C570.317495,1521.39769 641.916685,1511.45001 674.393104,1497.21684 C759.628342,1459.95911 739.504961,1342.23103 739.504961,1264.62973 C739.504961,1178.08165 711.701591,1000.70724 779.021672,982.109092 C846.446562,963.514553 865.09177,1019.32708 865.09177,1086.76028 C865.09177,1200.98336 803.037452,1369.72898 803.037452,1483.56181 C803.037452,1526.90089 803.037452,1570.34476 855.760131,1616.84917 C886.436721,1643.90267 958.079281,1693.55074 1051.12823,1693.55074 C1137.96814,1693.55074 1168.60136,1684.09087 1202.25236,1668.00041 C1251.37538,1644.52056 1260.86243,1588.2383 1218.55562,1523.81505 C1195.2699,1488.4399 1155.2183,1453.38634 1134.84554,1421.56315 C1076.68362,1330.84161 1079.03641,1252.60073 1069.72646,1175.08615 C1056.37231,1064.01034 1060.33338,996.537384 1057.26861,885.270064 C1051.12823,658.973878 1038.47522,236.553366 1037.14884,224.188323 C1108.45529,276.878872 1147.36844,428.59094 1153.44738,478.51724 C1165.51852,577.798924 1172.04561,675.877347 1172.04561,777.280094 C1172.04561,901.02086 1171.61553,981.40448 1175.15374,1034.843 C1180.88573,1122.03065 1201.97046,1295.96149 1237.12132,1377.34602 C1272.56493,1459.27256 1349.58167,1581.66553 1477.0948,1659.4186 C1536.00484,1695.37189 1705.79225,1791.88933 1868.8791,1796.18927 C1964.94945,1798.69697 2083.51042,1790.00675 2123.92704,1631.42561 C2145.78158,1545.71223 2133.237,1370.24208 2021.28624,1308.05192 C1972.16322,1280.78884 1909.31018,1283.2062 1834.71489,1301.8441 C1712.98434,1332.27974 1557.40762,1352.99534 1453.95364,1278.66777 C1368.18351,1217.0955 1323.9793,1127.83376 1306.92068,1022.43098 C1297.58905,964.540758 1254.19801,536.60259 1251.0971,484.551612 C1244.86637,381.508382 1190.64744,200.899982 1092.95436,107.934515 C1023.53448,41.7840646 941.017054,4.07827152 841.802427,0.970750479 C841.802427,0.970750479 711.593167,-3.65078372 604.608198,54.4309526" id="Fill-1"></path>
                </g>
                <path d="M779.832679,5.59319952 C838.847528,-1.2144396 926.034387,44.1156203 965.869139,86.2116902 C1011.73946,134.746833 1035.79861,158.548276 1044.10384,224.955278 C1051.12606,280.746121 1076.68507,364.450452 1146.44468,380.71435 C1184.84463,389.679187 1241.08384,370.03315 1292.92106,362.116198 C1402.15762,345.443986 1484.47627,342.531589 1551.18195,352.056502 C1597.52572,358.690698 1648.74131,381.975425 1677.00006,418.271994 C1746.55005,507.663811 1711.55098,622.544528 1637.12555,680.629878 C1576.91082,727.690755 1509.20403,743.401803 1406.88488,743.401803 C1285.9675,743.401803 1164.38152,706.805323 1124.90818,694.028352 C1077.62474,678.725618 1048.79496,659.740833 1002.28133,638.81204 C930.52673,606.497434 845.461355,537.821219 798.542941,473.275116 C772.214129,437.061656 740.254528,401.343231 724.630718,358.947249 C709.968262,319.163753 699.968012,285.371268 686.805413,225.724931" id="Fill-4" fill="#000000"></path>
                <path d="M1396.396,548.541083 C1422.25498,565.878159 1444.43117,537.563584 1444.43117,502.593132 C1447.57907,439.911542 1414.65811,438.047029 1414.65811,438.047029 C1371.62848,429.14362 1358.78754,523.178652 1396.396,548.541083 Z" id="Fill-6" fill="#FFFFFF"></path>
                <path d="M1632.95234,546.676931 C1658.82939,564.014008 1680.91523,535.699433 1680.91523,500.732594 C1684.08481,438.047391 1651.16385,436.226239 1651.16385,436.226239 C1608.16314,427.326443 1595.2716,521.383156 1632.95234,546.676931 Z" id="Fill-8" fill="#FFFFFF"></path>
                <path d="M1842.46282,846.190288 C1866.99542,846.190288 1909.63834,849.9157 1935.55514,861.854362 C1956.38689,874.09655 1955.06051,883.02164 1956.01825,891.711858 C1958.29153,912.535863 1929.75449,924.734689 1929.75449,924.734689 C1929.75449,995.615076 1935.32384,1058.80977 1959.7697,1123.57268 C1981.81217,1181.93264 2014.02838,1237.14896 2029.18597,1297.79982 C2046.58431,1367.52392 2039.73556,1394.85204 2036.37805,1480.11735 C2033.14342,1560.32753 2031.62549,1665.49182 2031.62549,1727.04242 C2031.62549,1782.81158 2029.20404,1846.43988 1980.66289,1883.33628 C1938.39945,1915.45937 1897.73345,1921.43232 1847.41416,1921.92012 C1846.38052,1922.11525 1845.37218,1922.03214 1844.32771,1922.03214 C1843.25431,1922.03214 1842.29657,1922.11525 1841.22318,1922.11525 C1790.92196,1921.43232 1750.27042,1915.45937 1708.01421,1883.33628 C1659.45138,1846.43988 1657.0516,1782.81158 1657.0516,1727.04242 C1657.0516,1665.49182 1655.51199,1560.32753 1652.32073,1480.11735 C1648.91985,1394.85204 1642.08556,1367.52392 1659.49474,1297.79982 C1674.64872,1237.14896 1706.86492,1181.93264 1728.84596,1123.57268 C1753.33157,1058.80977 1758.91538,995.615076 1758.91538,924.734689 C1758.91538,924.734689 1721.50569,909.493383 1729.4459,885.460682 C1732.12034,877.496756 1733.92017,870.609622 1751.4703,860.293375 C1751.4703,860.293375 1764.50641,854.385472 1785.46465,850.746781 C1800.4849,848.134296 1819.39033,846.190288 1842.46282,846.190288 Z" id="Fill-10" fill="#FDCE00"></path>
                <path d="M1387.25591,537.453375 C1369.87564,537.453375 1355.78783,517.467679 1355.78783,492.770114 C1355.78783,468.072548 1369.87564,448.083238 1387.25591,448.083238 C1404.63618,448.083238 1418.72399,468.072548 1418.72399,492.770114 C1418.72399,517.467679 1404.63618,537.453375 1387.25591,537.453375 Z" id="Fill-12" fill="#000000"></path>
                <path d="M1624.62325,537.453375 C1607.24298,537.453375 1593.15517,517.467679 1593.15517,492.770114 C1593.15517,468.072548 1607.24298,448.083238 1624.62325,448.083238 C1641.99991,448.083238 1656.06965,468.072548 1656.06965,492.770114 C1656.06965,517.467679 1641.99991,537.453375 1624.62325,537.453375 Z" id="Fill-14" fill="#000000"></path>
                <path d="M1383.95225,738.577557 C1413.75422,707.621589 1473.43407,683.733424 1512.94355,680.8138 L1517.65635,680.466914 C1529.27573,679.606925 1540.25179,678.793911 1550.50864,678.793911 C1575.25809,678.793911 1592.30224,683.827373 1607.79233,695.975612 C1569.26227,733.634431 1497.59803,741.699532 1443.32851,741.699532 C1417.65747,741.699532 1395.94387,739.8567 1383.95225,738.577557 Z" id="Fill-16" fill="#FFFFFF"></path>
                <path d="M1512.54166,675.410327 C1467.09781,678.767172 1400.50416,707.42502 1373.17424,742.735131 C1373.17424,742.735131 1403.30149,747.121795 1443.31694,747.121795 C1500.12718,747.121795 1576.8801,738.290654 1615.73543,695.547786 C1595.56506,677.686767 1574.53093,673.372371 1550.50792,673.372371 C1538.66447,673.372371 1526.0982,674.420256 1512.54166,675.410327 Z M1599.1864,696.469202 C1575.97657,716.19112 1530.84353,736.281605 1443.31694,736.281605 C1424.8922,736.281605 1408.52388,735.320442 1396.39853,734.312304 C1427.06789,708.230808 1478.30878,688.808801 1513.33315,686.221609 L1518.0568,685.87111 C1529.57136,685.018348 1540.44984,684.212561 1550.50792,684.212561 C1571.11559,684.212561 1586.02381,687.854864 1599.1864,696.469202 Z" id="Fill-18" fill="#000000"></path>
                <path d="M1823.84364,1443.52051 C1795.24878,1415.27098 1769.1079,1406.58076 1728.32986,1421.4535 C1675.95414,1440.56837 1663.74928,1487.13421 1663.74928,1532.01259 C1663.74928,1590.37618 1683.93771,1635.78934 1720.0933,1681.43738 C1757.46323,1728.71145 1784.58353,1734.6591 1822.70519,1780.67571 C1843.89835,1806.24771 1855.15631,1846.7828 1854.17689,1879.99714 C1861.51715,1856.17763 1904.17814,1820.26769 1923.69796,1803.85203 C1955.16604,1777.35861 1967.27694,1764.5166 1983.31637,1747.56977 C2011.45947,1717.75202 2015.44222,1716.0212 2029.67821,1669.75166 C2038.49664,1641.07574 2030.2131,1603.53617 2034.64039,1550.56739 C2038.1786,1508.25813 2039.60979,1457.47184 2039.60979,1424.75253 C2039.60979,1392.00432 2036.7438,1393.74236 2023.0427,1370.13243 C2007.07555,1342.55137 1974.9244,1332.08336 1946.87888,1332.06168 C1907.87899,1332.00025 1897.22097,1346.9561 1870.7223,1383.37914 C1862.92665,1394.06034 1860.42207,1406.1074 1856.91277,1418.75791 C1853.10349,1432.39125 1856.01647,1451.22427 1845.9078,1461.17557 L1823.84364,1443.52051 Z" id="Fill-20" fill="#FAFBFB"></path>
                <path d="M1507.72875,1358.55619 C1546.46842,1348.37002 1581.68434,1305.31279 1611.60558,1283.03259 C1665.03301,1243.29245 1713.3031,1208.06545 1760.44198,1219.83067 C1824.18047,1235.77659 1836.59856,1289.4283 1814.78739,1337.28412 C1790.68849,1390.16618 1729.78346,1414.22056 1682.547,1441.50893 C1642.36891,1464.81173 1604.51831,1495.50031 1606.87832,1542.71295 C1608.50106,1573.27505 1595.1433,1562.38066 1595.1433,1592.34295" id="Fill-22" fill="#000000"></path>
                <path d="M1781.34962,1609.70134 C1770.47837,1608.73657 1758.36748,1616.44033 1757.31577,1628.03933 C1755.94602,1643.08551 1765.48728,1643.92021 1775.66101,1649.03678 C1784.71797,1653.52823 1796.03738,1662.90499 1796.03738,1675.40373 C1796.03738,1689.15993 1781.07495,1684.62512 1779.9365,1694.40297 C1778.50531,1707.71834 1803.23307,1707.14019 1808.38318,1701.74901 C1815.23916,1694.66314 1812.9442,1674.95206 1809.35177,1666.00529 C1805.04736,1655.13258 1795.93257,1648.39359 1786.77079,1642.3809 C1773.73468,1633.90387 1772.10111,1632.79456 1784.09635,1626.11339 C1788.50195,1623.63099 1793.96287,1618.77458 1794.08937,1614.32288 C1794.17611,1611.58392 1781.34962,1609.70134 1781.34962,1609.70134" id="Fill-24" fill="#000000"></path>
                <path d="M1805.97076,1628.29769 C1807.42364,1639.40527 1810.46672,1651.15242 1813.16285,1657.55536 C1818.4503,1669.8373 1838.52669,1692.43548 1850.57615,1678.16256 C1858.28505,1669.111 1852.82774,1641.69616 1849.7196,1630.82345 C1844.64539,1612.95159 1827.39523,1587.93605 1812.1762,1597.45735 C1812.1762,1597.45735 1802.75782,1603.1087 1805.97076,1628.29769" id="Fill-26" fill="#000000"></path>
                <path d="M1837.28344,1542.80075 C1839.23145,1551.89567 1853.42768,1568.71603 1865.647,1559.40792 C1873.50408,1553.41691 1874.93527,1531.30654 1872.6909,1523.64614 C1871.7946,1520.52055 1870.59472,1512.15192 1866.03371,1505.79596 C1860.72457,1498.24396 1851.5628,1493.27915 1845.37182,1500.5746 C1845.37182,1500.5746 1830.26845,1510.73908 1837.28344,1542.80075" id="Fill-28" fill="#000000"></path>
                <path d="M1874.29304,1496.52868 C1873.44011,1505.1105 1874.20991,1515.0654 1875.53629,1520.33012 C1879.90576,1537.76837 1891.69861,1546.2454 1903.96129,1536.93729 C1911.775,1530.94267 1912.60986,1509.00574 1910.98351,1501.19719 C1908.5223,1489.31995 1899.74724,1468.73082 1883.67528,1478.12565 C1883.67528,1478.12565 1875.42787,1485.08144 1874.29304,1496.52868" id="Fill-30" fill="#000000"></path>
                <path d="M1846.42461,1588.49034 C1850.44712,1606.10565 1857.87412,1635.01644 1871.32224,1648.15836 C1900.22068,1676.19109 1905.50813,1639.55486 1898.44254,1613.66126 C1897.11255,1608.77957 1892.25879,1588.25547 1886.45453,1574.98708 C1880.39728,1561.09718 1873.39674,1554.93273 1873.07147,1568.93103 C1872.77511,1585.34669 1892.65996,1632.51597 1883.13677,1637.05078 C1880.24187,1637.88547 1876.92411,1632.08236 1872.75343,1625.64329 C1867.19131,1617.06147 1863.91692,1606.21044 1860.76903,1597.09384 C1860.04259,1594.97639 1855.82131,1584.91669 1854.17689,1581.5996 C1849.93392,1576.10001 1844.73682,1575.67001 1845.05487,1581.04313 L1846.42461,1588.49034 Z" id="Fill-32" fill="#000000"></path>
                <path d="M1903.34003,1546.78091 C1888.18605,1552.59848 1889.34257,1560.75391 1893.49157,1574.43062 C1897.32614,1586.92574 1901.84378,1600.51934 1905.59162,1613.44446 C1907.32278,1619.28732 1912.9102,1646.87199 1920.68415,1645.03277 C1928.08947,1643.34532 1920.06253,1619.03077 1919.48427,1614.3442 C1925.26323,1613.61429 1944.09638,1626.95134 1947.11777,1620.74352 C1950.84031,1613.08312 1929.58571,1604.86264 1926.99439,1599.10289 C1923.38028,1591.23291 1930.48201,1575.16052 1930.01579,1565.29234 C1929.64715,1556.90203 1927.78589,1550.74119 1923.12007,1547.38073 C1916.67972,1544.35993 1903.34003,1546.78091 1903.34003,1546.78091" id="Fill-34" fill="#000000"></path>
                <path d="M1946.45531,1524.82194 C1930.74115,1532.86897 1936.75503,1572.00928 1940.90764,1585.42944 C1945.83368,1601.28863 1950.73442,1610.59674 1962.85254,1615.45676 C1977.57643,1621.36466 1987.03457,1604.77917 1981.19055,1598.18834 C1971.6276,1595.59753 1970.94092,1606.37991 1961.80083,1596.92365 C1954.75693,1589.60652 1952.94264,1579.71666 1951.03439,1570.83493 C1948.7828,1560.28381 1947.97324,1545.73266 1953.77389,1537.59891 C1958.29153,1531.24294 1969.65791,1529.46515 1965.11859,1524.41723 C1965.11859,1524.41723 1957.65183,1519.10916 1946.45531,1524.82194" id="Fill-36" fill="#000000"></path>
                <path d="M1989.28797,1553.33019 C1995.04163,1552.40877 2004.48531,1548.25698 2009.36436,1545.11332 C2015.16502,1541.27951 2014.9048,1533.85398 2011.41718,1526.60189 C2006.08636,1515.47263 1989.17593,1498.02715 1978.05169,1512.11217 C1970.92105,1521.09869 1973.55212,1546.82246 1975.48206,1557.99508 C1977.63968,1570.2987 1984.21375,1595.61777 1998.2329,1601.074 C2011.01601,1606.0388 2015.83001,1595.93936 2015.16502,1585.4316 C2007.28625,1583.14071 2007.52117,1596.73069 2000.95071,1587.05763 C1995.30185,1578.88052 1996.58847,1577.12802 1993.37553,1568.1415 L1989.28797,1553.33019 Z" id="Fill-38" fill="#000000"></path>
                <path d="M1814.42707,1514.14399 C1798.47437,1508.17466 1785.50693,1521.78271 1781.30734,1538.96802 C1778.76661,1549.45771 1781.56755,1562.85257 1782.85418,1569.37837 C1785.2684,1582.05055 1798.65146,1590.50228 1811.15268,1588.91962 C1825.0634,1587.1635 1825.79345,1578.94664 1826.55964,1564.75683 C1825.9597,1572.1643 1830.35085,1591.61521 1839.72586,1588.59802 C1840.51735,1580.35948 1839.83067,1573.46873 1838.11758,1563.47046 C1836.68277,1554.9573 1833.73366,1547.74496 1827.74146,1548.06655 C1811.94417,1548.91932 1816.13654,1588.76785 1797.87443,1569.18686 C1793.32065,1560.86159 1792.31231,1550.5887 1794.15551,1541.04211 C1798.28282,1519.45207 1817.35811,1531.1125 1822.60219,1526.49096 C1823.92857,1522.27413 1814.42707,1514.14399 1814.42707,1514.14399" id="Fill-40" fill="#000000"></path>
                <path d="M1917.08341,1462.82255 C1912.95248,1464.89664 1911.58635,1471.80907 1911.8827,1474.82987 C1913.08259,1486.81551 1916.0823,1490.28075 1918.32667,1510.41821 C1918.69169,1513.63052 1921.3047,1524.1166 1924.66582,1525.39936 C1928.08839,1526.64236 1938.6416,1518.12559 1940.67273,1516.21772 C1952.574,1504.96198 1956.40857,1490.55899 1954.75693,1476.06927 C1952.8306,1459.44042 1940.03303,1454.60569 1927.08005,1458.24077 C1925.34889,1458.77916 1919.88435,1460.89661 1917.08341,1462.82255" id="Fill-42" fill="#000000"></path>
                <path d="M1842.63594,892.928128 C1797.60048,892.928128 1761.08348,885.119578 1761.08348,875.507943 C1761.08348,865.899921 1797.60048,858.131119 1842.63594,858.131119 C1887.67501,858.131119 1924.17033,865.899921 1924.17033,875.507943 C1924.17033,885.119578 1887.67501,892.928128 1842.63594,892.928128 Z" id="Fill-44" fill="#FFFFFF"></path>
            </g>
        </g>
    </g>
</svg>