<svg id="Layer_1" xmlns="http://www.w3.org/2000/svg" viewBox="0 0 84 26"><style>.st0{fill:#fff}</style><title>Artboard 1</title><path class="st0" d="M17.9 25.4h-4v-9c-.2-2.7-2.5-4.8-5.2-4.6-2.5.2-4.5 2.1-4.6 4.6v9H0v-9c.2-4.9 4.4-8.8 9.4-8.5 4.6.2 8.3 3.9 8.6 8.5v9zM28.6 26c-4.9 0-9-4-9-8.9V8h4v9c-.2 2.7 1.9 5.1 4.6 5.2s5.1-1.9 5.2-4.6V8h4v9c.1 5-3.9 9-8.8 9zM63.4 25.4h-9.1c-5-.2-8.8-4.4-8.6-9.4.2-4.6 3.9-8.3 8.6-8.5h9.1v17.9zm-9.1-13.9c-2.7.2-4.8 2.5-4.6 5.2.2 2.5 2.1 4.5 4.6 4.6h5v-9.8h-5z"/><path class="st0" d="M63.4 25.4h-9.1c-5-.2-8.8-4.4-8.6-9.4.2-4.6 3.9-8.3 8.6-8.5h9.1v17.9zm-9.1-13.9c-2.7.2-4.8 2.5-4.6 5.2.2 2.5 2.1 4.5 4.6 4.6h5v-9.8h-5zM74.6 25.4h-9.1V0h4v7.5h5c5-.2 9.2 3.6 9.4 8.5.2 4.9-3.6 9.1-8.6 9.4h-.7zm-5-4.1h5c2.7.2 5.1-1.9 5.2-4.6.2-2.7-1.9-5.1-4.6-5.2h-5.6v9.8zM39.5.1h4v25.3h-4z"/></svg>