<svg id="Layer_1" data-name="Layer 1" xmlns="http://www.w3.org/2000/svg" viewBox="0 0 169.36 47"><defs><style>.cls-1{fill:#BBBDBF;}</style></defs><path class="cls-1" d="M147.18,45.07h-1.35V42a1.65,1.65,0,1,0-3.31,0v3h-1.35V42a3,3,0,1,1,6,0Z"/><path class="cls-1" d="M150.75,45.28a3,3,0,0,1-3-3v-3h1.35v3a1.65,1.65,0,1,0,3.31,0v-3h1.35v3A3,3,0,0,1,150.75,45.28Z"/><path class="cls-1" d="M162.42,45.06h-3a3,3,0,1,1,0-6h3Zm-3-4.66a1.65,1.65,0,1,0,0,3.31h1.68V40.4Z"/><path class="cls-1" d="M162.42,45.06h-3a3,3,0,1,1,0-6h3Zm-3-4.66a1.65,1.65,0,1,0,0,3.31h1.68V40.4Z"/><path class="cls-1" d="M166.18,45.06h-3V36.54h1.35V39h1.68a3,3,0,1,1,0,6ZM164.5,43.7h1.68a1.65,1.65,0,1,0,0-3.31H164.5Z"/><rect class="cls-1" x="154.42" y="36.58" width="1.35" height="8.49"/><path class="cls-1" d="M131.15,45.17h-.72v-6h.72v2.6a1.77,1.77,0,0,1,1.6-.93,2.19,2.19,0,0,1,0,4.37,1.76,1.76,0,0,1-1.6-.92Zm1.47-.62a1.48,1.48,0,1,0-1.47-1.48A1.45,1.45,0,0,0,132.61,44.55Z"/><path class="cls-1" d="M136.58,44.85,135,41h.82l1.2,3,1.23-3H139l-2.56,6h-.83Z"/><path class="cls-1" d="M132.94,12.28a8.27,8.27,0,0,0-6.46-5.46,16.24,16.24,0,0,0-13.23,3,13.73,13.73,0,0,0-4.51,6,11,11,0,0,0,.08,8,12.82,12.82,0,0,0,9.61,7.56,41.53,41.53,0,0,0,8.83.44v.47h6.27V17.52A15.58,15.58,0,0,0,132.94,12.28Zm-5.68,5.21v8.13a36.38,36.38,0,0,1-7.71-.34,6.49,6.49,0,0,1-5-3.84,4.77,4.77,0,0,1,0-3.42,7.49,7.49,0,0,1,2.48-3.23,10.06,10.06,0,0,1,6.11-2.06,9.39,9.39,0,0,1,2,.2c1.49.32,1.74,1.05,1.83,1.33A10.66,10.66,0,0,1,127.27,17.49Z"/><path class="cls-1" d="M143.26.91H137V17.26c0,5.17,0,12.7.07,15.28l6.27-.06c0-2.57-.07-10.06-.07-15.22Z"/><path class="cls-1" d="M77.75,26.3a7.08,7.08,0,0,1-4.37-3.36h3.2c3.54,0,7.2,0,10.37,0l3.06,0,.05-3.06c.11-6.25-2.74-11-7.62-12.74a12.07,12.07,0,0,0-12.54,3.1,13.3,13.3,0,0,0,6.38,22.19,13.53,13.53,0,0,0,3.16.36,14.92,14.92,0,0,0,10.89-4.6L85.65,24A8.8,8.8,0,0,1,77.75,26.3ZM74.43,14.54A5.87,5.87,0,0,1,80.36,13a5.06,5.06,0,0,1,3.1,3.66H73A7.47,7.47,0,0,1,74.43,14.54Z"/><polygon class="cls-1" points="29.98 15.94 25.74 6.44 19.26 6.44 27.33 24.73 23.36 37.95 23.22 38.4 29.92 38.4 39.4 6.89 39.54 6.44 32.84 6.44 29.98 15.94"/><path class="cls-1" d="M51,6.48a13.16,13.16,0,0,0-3.13.38V6.54H41.55V38.33h6.27v-6A13.14,13.14,0,1,0,51,6.48Zm0,20a6.86,6.86,0,0,1-3.13-.75V13.5a6.87,6.87,0,1,1,3.13,13Z"/><path class="cls-1" d="M108,6.6l-5.67,0V.91l-6.27,0V6.56l-5.52,0,0,6.27,5.56,0,0,10.28c0,5.81,4.11,10.24,9.54,10.3h.21V27.14h-.13c-2.31,0-3.34-2.05-3.35-4l0-10.24,5.63,0Z"/><path class="cls-1" d="M12.1.91,5.83.92V6.56l-5.52,0,0,6.27,5.56,0,0,10.28c0,5.81,4.11,10.24,9.54,10.3h.21V27.14H15.5c-2.31,0-3.34-2.05-3.35-4l0-10.24,5.63,0,0-6.27-5.67,0Z"/><path class="cls-1" d="M158.55,18.79c3.79-3.69,5.76-7.72,5.76-11.91H158c0,3.09-2.11,5.88-4.62,8.11V.91h-6.27V15.58c0,5.78.06,14.25.08,17.17l6.27-.06c0-1.81,0-5.74-.07-9.85l.19-.13c4.64,6.91,10,10.52,15.73,10.52V27C164.93,27,161.13,22.74,158.55,18.79Z"/></svg>