<svg id="Layer_1" xmlns="http://www.w3.org/2000/svg" viewBox="0 0 169 46"><style>.st0{fill:#ff6455}</style><title>Typetalk Logo</title><path class="st0" d="M146.9 44.1h-1.4V41c0-.9-.7-1.7-1.7-1.7s-1.7.7-1.7 1.7v3h-1.4v-3c0-1.7 1.3-3 3-3s3 1.3 3 3l.2 3.1zM150.4 44.3c-1.7 0-3-1.3-3-3v-3h1.4v3c0 .9.7 1.7 1.7 1.7s1.7-.7 1.7-1.7v-3h1.4v3c-.1 1.6-1.5 3-3.2 3zM162.1 44.1h-3c-1.7 0-3-1.3-3-3s1.3-3 3-3h3v6zm-3-4.7c-.9 0-1.7.7-1.7 1.7 0 .9.7 1.7 1.7 1.7h1.7v-3.3h-1.7z"/><path class="st0" d="M162.1 44.1h-3c-1.7 0-3-1.3-3-3s1.3-3 3-3h3v6zm-3-4.7c-.9 0-1.7.7-1.7 1.7 0 .9.7 1.7 1.7 1.7h1.7v-3.3h-1.7zM165.9 44.1h-3v-8.5h1.4V38h1.7c1.7 0 3 1.3 3 3-.1 1.7-1.4 3-3.1 3.1zm-1.7-1.4h1.7c.9 0 1.7-.7 1.7-1.7 0-.9-.7-1.7-1.7-1.7h-1.7v3.4zM154.1 35.6h1.4v8.5h-1.4zM130.8 44.2h-.7v-6h.7v2.6c.3-.6.9-.9 1.6-.9 1.2.1 2.1 1.1 2 2.3-.1 1.1-.9 2-2 2-.7 0-1.3-.3-1.6-.9v.9zm1.5-.6c.8 0 1.5-.7 1.5-1.5s-.7-1.5-1.5-1.5-1.5.7-1.5 1.5.7 1.4 1.5 1.5zM136.3 43.9l-1.6-3.8h.8l1.2 3 1.2-3h.8l-2.6 6h-.8l1-2.2zM132.6 11.3c-1-2.9-3.5-5-6.5-5.4-4.6-1-9.5.1-13.2 3-2 1.5-3.6 3.6-4.5 6-1 2.6-.9 5.4.1 8 1.7 4 5.3 6.8 9.6 7.5 2.9.5 5.9.6 8.8.4v.5h6.3V16.6c.1-1.8-.1-3.6-.6-5.3zm-5.6 5.2v8.1c-2.6.2-5.2 0-7.7-.3-2.2-.3-4.1-1.8-5-3.8-.4-1.1-.4-2.3 0-3.4.5-1.3 1.4-2.4 2.5-3.2 1.8-1.3 3.9-2.1 6.1-2.1.7 0 1.3.1 2 .2 1.5.3 1.7 1 1.8 1.3.2 1.1.3 2.2.3 3.2zM142.9 0h-6.3v16.3c0 5.2 0 12.7.1 15.3l6.3-.1c0-2.6-.1-10-.1-15.2V0zM77.4 25.3c-1.9-.5-3.4-1.7-4.4-3.4H89.7l.1-3.1c.1-6.2-2.7-11-7.6-12.7-4.4-1.5-9.3-.3-12.5 3.1-5.1 5.3-5 13.7.3 18.8 1.7 1.6 3.8 2.8 6.1 3.4 1 .2 2.1.4 3.2.4 4.1 0 8-1.6 10.9-4.6L85.3 23c-2.1 2.1-5 2.9-7.9 2.3zm-3.3-11.7c1.5-1.6 3.8-2.2 5.9-1.5 1.6.6 2.7 2 3.1 3.7H72.7c.3-.9.8-1.6 1.4-2.2zM29.7 15l-4.3-9.5H19l8 18.3L23.1 37l-.2.4h6.7L39.1 6l.1-.5h-6.7zM50.7 5.6c-1.1 0-2.1.1-3.1.4v-.4h-6.3v31.7h6.3v-6c7 1.8 14.2-2.4 16-9.4 1.8-7-2.4-14.2-9.4-16-1.2-.2-2.3-.4-3.5-.3zm0 19.9c-1.1 0-2.2-.3-3.1-.7V12.6c3.4-1.7 7.5-.4 9.2 3 1.7 3.4.4 7.5-3 9.2-1 .5-2 .7-3.1.7zM107.7 5.7H102V0h-6.3v5.6h-5.5v6.3h5.6v10.3c0 5.8 4.1 10.2 9.5 10.3h.2v-6.3h-.1c-2.3 0-3.3-2-3.3-4V12h5.6V5.7zM11.8 0H5.5v5.6H0v6.3h5.6v10.3c0 5.8 4.1 10.2 9.5 10.3h.2v-6.3h-.1c-2.3 0-3.3-2-3.4-4V12h5.6V5.7h-5.7l.1-5.7zM158.2 17.8C162 14.2 164 10.1 164 6h-6.3c0 3.1-2.1 5.9-4.6 8.1V0h-6.3v14.6c0 5.8.1 14.2.1 17.1l6.3-.1c0-1.8 0-5.7-.1-9.8l.2-.1c4.6 6.9 10 10.5 15.7 10.5V26c-4.4 0-8.2-4.2-10.8-8.2z"/></svg>
